<svg version="1.1" id="Layer_1" xmlns="http://www.w3.org/2000/svg" xmlns:xlink="http://www.w3.org/1999/xlink" x="0px" y="0px" width="639.195px" height="333.573px" viewBox="0 0 639.195 333.573" style="enable-background:new 0 0 639.195 333.573;" xml:space="preserve">
    <style type="text/css">
    .st0 {
        fill: none;
        stroke: #fff;
        stroke-width: 1;
        stroke-miterlimit: 5;
    }

    <defs>
    	<style>
   				.st0{

   				stroke-dasharray:2000;
   				stroke-dashoffset:0;
   				-webkit-animation: dash 4s linear forwards;
   				-o-animation: dash 4s linear forwards;
   				-moz-animation: dash 4s linear forwards;
   				animation: dash 4s linear forwards;
   				}

   				@-webkit-keyframes dash{

   				from{
   					stroke-dashoffset:2000;
					}

					to{
						stroke-dashoffset:0;

					}
   				}
   		</style>
    </defs>
    </style>
    <path class="st0" d="M594.800,318.811l-183.559,14.012c0,0-15.227,0.342-12.999-14.318c2.228-14.658,3.327-18.119-8.138-31.762
	c-15.029-17.885-29.725-36.051-44.615-54.053c-15.482-18.719-30.105-38.506-46.596-56.35
	c-18.534-20.055-38.942-29.742-65.801-31.674c-15.244-1.096-30.617-3.557-45.82-5.266c-46.646-5.24-93.342-10.039-139.991-15.252
	c-11.778-1.318-23.563-2.584-35.343-3.873c-4.386-0.479-11.252-9.066-11.07-13.385c0.563-13.189,32.982-11.043,22.809-26.98
	C14.806,66.193,8.553,56.395,8.553,56.395S0.54,45.566,18.906,42.367S252.783,0.902,252.783,0.902s10.373-2.76,12.464,15.211
	c2.093,17.969-3.063,56.559,56.934,68.461c59.994,11.9,120.283-23.27,120.283-23.27s32.203-23.863,46.988,17.445l3.484,19.289
	c0,0,1.375,15.115,18.973,5.539c9.475-5.154,21.43-14.516,32.826-13.506c14.25,1.264,18.545,20.965,15.283,33.045
	c-4.574,16.916-21.857,28.717-33.152,40.854c-10.887,11.701-21.396,23.902-32.014,35.855
	c-14.086,15.855-31.666,31.375-43.615,48.928c-0.004,0.008-11.955,17.563,4.244,26.525c0,0,22.514,9.35,56.287-15.516
	c11.826-8.707,23.777-17.215,35.473-26.096c20.908-15.875,39.461-20.279,65.033-14.332c28.5,6.629,27.088,45.035,25.422,51.063
	C636.028,276.428,632.614,315.916,594.685,318.811z" />
</svg>